<svg xmlns="http://www.w3.org/2000/svg" width="1024" height="1024" viewBox="0 0 1024 1024" version="1.1"><path d="M 0 512.001 L 0 1024.002 512.250 1023.751 L 1024.500 1023.500 1024.751 511.750 L 1025.002 0 512.501 0 L 0 0 0 512.001 M 0.496 512.500 C 0.496 794.100, 0.610 909.151, 0.750 768.168 C 0.890 627.186, 0.890 396.786, 0.750 256.168 C 0.610 115.551, 0.496 230.900, 0.496 512.500 M 396.500 336.045 C 363.407 341.254, 340.513 364.894, 333.511 401.090 C 331.419 411.902, 331.378 435.126, 333.425 448.821 C 335.729 464.226, 339.463 479.892, 345.425 499.162 C 355.281 531.015, 356.266 535.865, 357.983 561 C 360.074 591.615, 362.788 610.332, 368.204 631.500 C 375.502 660.023, 388.519 685.962, 401.477 697.805 C 408.885 704.575, 414.915 707.352, 423.258 707.835 C 429.036 708.170, 430.810 707.838, 435.482 705.552 C 438.489 704.082, 442.574 700.993, 444.560 698.689 C 450.634 691.644, 457.516 676.076, 462.547 658 C 473.086 620.137, 477.310 610.179, 487.506 599.167 L 493 593.233 493 580.009 C 493 564.968, 493.644 565.604, 484.177 571.299 C 477.555 575.282, 468.967 583.702, 463.849 591.229 C 454.907 604.381, 448.789 620.039, 439.518 653.500 C 433.720 674.424, 428.429 684, 422.666 684 C 419.590 684, 412.139 675.442, 406.898 665.888 C 391.527 637.867, 385.412 611.948, 381.472 558.115 C 379.732 534.336, 378.193 524.782, 373.965 511.500 C 368.764 495.162, 361.295 467.686, 358.878 456 C 356.845 446.168, 356.502 441.671, 356.511 425 C 356.521 405.616, 356.541 405.445, 359.755 396.212 C 366.690 376.286, 378.551 364.676, 396.231 360.508 C 412.958 356.564, 437.040 360.606, 455.919 370.527 C 462.458 373.963, 463.128 374.116, 466.696 372.989 C 471.682 371.414, 489.843 362.512, 492.855 360.167 L 495.209 358.334 487.355 355.569 C 483.035 354.048, 472.560 350.107, 464.077 346.811 C 455.594 343.514, 443.894 339.727, 438.077 338.395 C 426.081 335.648, 406.174 334.523, 396.500 336.045 M 580.500 335.971 C 558.088 339.168, 537.901 348.120, 511.608 366.522 C 483.954 385.876, 464.728 393.205, 446.024 391.524 L 439.500 390.938 445.074 393.896 C 454.816 399.066, 461.621 400.272, 478 399.730 C 500.151 398.999, 511.864 394.855, 537.971 378.518 C 552.781 369.250, 559.362 365.943, 570 362.421 C 577.760 359.852, 579.762 359.608, 593 359.620 C 605.304 359.632, 608.371 359.956, 613.249 361.763 C 625.958 366.469, 636.702 376.226, 642.298 388.142 L 645.500 394.960 657.250 394.980 C 670.522 395.003, 670.057 395.384, 667.132 386.884 C 662.698 373.995, 654.502 361.300, 645.268 353.019 C 638.590 347.030, 624.630 339.936, 614.870 337.572 C 606.873 335.636, 588.764 334.792, 580.500 335.971 M 609 564.500 L 609 707 641 707 L 673 707 673 564.500 L 673 422 641 422 L 609 422 609 564.500 M 514 617.500 L 514 707 546.500 707 L 579 707 579 617.500 L 579 528 546.500 528 L 514 528 514 617.500" stroke="none" fill="#ffffff" fill-rule="evenodd"/><path d="M 392.022 337.563 C 377.078 340.802, 366.490 346.344, 356.944 355.922 C 339.257 373.668, 331.138 397.800, 332.356 429 C 333.265 452.272, 336.417 467.862, 347.548 504.140 C 355.352 529.574, 356.621 536.145, 358.506 560.894 C 362.573 614.280, 368.579 640.999, 383.083 670.243 C 397.324 698.954, 414.179 711.578, 431.535 706.533 C 443.560 703.037, 453.127 688.725, 460.469 663.250 C 472.351 622.024, 473.457 618.832, 479.145 609.351 C 480.990 606.276, 484.637 601.468, 487.250 598.668 L 492 593.576 492 580.788 C 492 573.709, 491.591 568, 491.084 568 C 489.237 568, 475.156 578.085, 471.771 581.832 C 459.388 595.538, 451.675 612.264, 442.412 645.500 C 437.101 664.559, 434.510 672.034, 431.227 677.773 C 425.074 688.530, 418.092 685.677, 407.703 668.159 C 392.091 641.834, 384.445 610.404, 381.028 558.500 C 379.456 534.634, 378.362 528.685, 370.819 503 C 357.668 458.222, 355.566 447.475, 355.559 425 C 355.554 410.800, 355.872 407.385, 357.840 400.500 C 361.254 388.555, 365.703 380.330, 372.500 373.399 C 383.050 362.641, 394.198 358.488, 412 358.686 C 426.344 358.846, 439.262 361.973, 453.231 368.665 C 462.685 373.195, 463.085 373.292, 467.231 372.077 C 472.275 370.599, 488.436 362.736, 491.975 360.038 L 494.451 358.151 491.475 357.433 C 489.839 357.038, 479.950 353.449, 469.500 349.457 C 459.050 345.466, 448.025 341.492, 445 340.626 C 429.072 336.067, 405.273 334.691, 392.022 337.563 M 572.097 338.056 C 552.561 342.280, 537.557 349.449, 512.353 366.602 C 492.696 379.979, 484.742 384.373, 472.452 388.639 C 465.584 391.024, 462.907 391.407, 452.810 391.450 C 441.161 391.500, 441.130 391.506, 444.310 393.226 C 454.641 398.814, 472.260 401.216, 487.057 399.052 C 504.002 396.574, 516.128 391.563, 537.392 378.252 C 558.856 364.816, 572.061 359.732, 588.852 358.442 C 599.115 357.654, 611.505 359.949, 619.954 364.205 C 628.909 368.715, 637.784 377.742, 642.107 386.736 L 645.500 393.796 657.252 394.148 C 663.715 394.342, 669.003 394.389, 669.002 394.254 C 668.989 392.528, 663.825 379.692, 660.652 373.500 C 655.204 362.867, 642.552 349.957, 632.484 344.759 C 620.807 338.730, 612.535 336.836, 596 336.403 C 584.142 336.092, 579.787 336.394, 572.097 338.056 M 514 617.500 L 514 707 546.488 707 L 578.977 707 578.741 644.750 C 578.611 610.513, 578.377 570.237, 578.221 555.250 L 577.937 528 545.969 528 L 514 528 514 617.500" stroke="none" fill="#1c477e" fill-rule="evenodd"/><path d="M 406.250 335.735 C 408.863 335.941, 413.137 335.941, 415.750 335.735 C 418.363 335.529, 416.225 335.360, 411 335.360 C 405.775 335.360, 403.637 335.529, 406.250 335.735 M 589.776 335.733 C 592.128 335.945, 595.728 335.942, 597.776 335.727 C 599.824 335.512, 597.900 335.339, 593.500 335.343 C 589.100 335.346, 587.424 335.522, 589.776 335.733 M 407.768 358.725 C 409.565 358.947, 412.265 358.943, 413.768 358.715 C 415.271 358.486, 413.800 358.304, 410.500 358.310 C 407.200 358.315, 405.971 358.502, 407.768 358.725 M 589.750 358.723 C 591.538 358.945, 594.462 358.945, 596.250 358.723 C 598.038 358.502, 596.575 358.320, 593 358.320 C 589.425 358.320, 587.962 358.502, 589.750 358.723 M 650.789 394.741 C 654.248 394.937, 659.648 394.936, 662.789 394.738 C 665.930 394.540, 663.100 394.380, 656.500 394.382 C 649.900 394.384, 647.330 394.546, 650.789 394.741 M 355.378 425 C 355.378 431.325, 355.541 433.913, 355.739 430.750 C 355.937 427.587, 355.937 422.413, 355.739 419.250 C 355.541 416.087, 355.378 418.675, 355.378 425 M 609 564.500 L 609 707 641 707 L 673 707 673 564.500 L 673 422 641 422 L 609 422 609 564.500 M 578.438 554.500 C 578.437 569.350, 578.576 575.564, 578.747 568.310 C 578.918 561.055, 578.918 548.905, 578.748 541.310 C 578.578 533.714, 578.438 539.650, 578.438 554.500 M 491.766 576.248 C 492.250 593.043, 492.637 594.697, 492.820 580.750 C 492.919 573.188, 492.663 566.999, 492.250 566.998 C 491.837 566.996, 491.620 571.159, 491.766 576.248" stroke="none" fill="#3c7368" fill-rule="evenodd"/></svg>